<?xml version="1.0" encoding="UTF-8"?>
<svg xmlns="http://www.w3.org/2000/svg" xmlns:xlink="http://www.w3.org/1999/xlink" width="500px" height="500px" viewBox="0 0 500 500" version="1.1">
<defs>
<filter id="alpha" filterUnits="objectBoundingBox" x="0%" y="0%" width="100%" height="100%">
  <feColorMatrix type="matrix" in="SourceGraphic" values="0 0 0 0 1 0 0 0 0 1 0 0 0 0 1 0 0 0 1 0"/>
</filter>
<mask id="mask0">
  <g filter="url(#alpha)">
<rect x="0" y="0" width="500" height="500" style="fill:rgb(0%,0%,0%);fill-opacity:0.219608;stroke:none;"/>
  </g>
</mask>
<clipPath id="clip1">
  <rect x="0" y="0" width="500" height="500"/>
</clipPath>
<g id="surface5" clip-path="url(#clip1)">
<path style=" stroke:none;fill-rule:evenodd;fill:rgb(24.313725%,49.803922%,58.823529%);fill-opacity:1;" d="M 388.421875 -0.839844 C 394.015625 -0.839844 399.609375 -0.839844 405.203125 -0.839844 C 405.203125 0.28125 405.203125 1.398438 405.203125 2.515625 C 399.199219 2.433594 393.605469 1.316406 388.421875 -0.839844 Z M 388.421875 -0.839844 "/>
</g>
<mask id="mask1">
  <g filter="url(#alpha)">
<rect x="0" y="0" width="500" height="500" style="fill:rgb(0%,0%,0%);fill-opacity:0.984314;stroke:none;"/>
  </g>
</mask>
<clipPath id="clip2">
  <rect x="0" y="0" width="500" height="500"/>
</clipPath>
<g id="surface8" clip-path="url(#clip2)">
<path style=" stroke:none;fill-rule:evenodd;fill:rgb(29.803922%,82.352941%,99.607843%);fill-opacity:1;" d="M 368.289062 -0.839844 C 375 -0.839844 381.710938 -0.839844 388.421875 -0.839844 C 393.605469 1.316406 399.199219 2.433594 405.203125 2.515625 C 413.566406 6.214844 422.515625 8.449219 432.046875 9.226562 C 432.605469 9.226562 433.167969 9.226562 433.726562 9.226562 C 437.105469 11.617188 441.019531 12.734375 445.46875 12.582031 C 450.652344 14.738281 456.246094 15.859375 462.25 15.941406 C 468.402344 19.035156 475.113281 20.992188 482.382812 21.8125 C 487.851562 23.84375 492.605469 26.917969 496.644531 31.039062 C 497.484375 133.945312 497.761719 236.855469 497.484375 339.765625 C 497.761719 355.992188 497.484375 372.214844 496.644531 388.421875 C 494.128906 390.941406 491.609375 393.457031 489.09375 395.972656 C 480.109375 396.859375 471.164062 396.582031 462.25 395.132812 C 453.855469 391.433594 444.90625 389.195312 435.402344 388.421875 C 434.84375 388.421875 434.285156 388.421875 433.726562 388.421875 C 422.867188 384.824219 411.679688 381.746094 400.167969 379.195312 C 399.234375 378.550781 398.675781 377.714844 398.488281 376.679688 C 403.125 365.730469 408.160156 355.105469 413.589844 344.796875 C 428.679688 348.148438 443.78125 351.503906 458.894531 354.867188 C 460.082031 356.382812 461.761719 356.941406 463.925781 356.542969 C 464.484375 255.589844 463.925781 154.917969 462.25 54.53125 C 435.039062 48.914062 407.917969 42.761719 380.871094 36.074219 C 340.707031 54.492188 300.714844 73.230469 260.90625 92.28125 C 253.636719 95.636719 246.363281 95.636719 239.09375 92.28125 C 203.726562 76.699219 168.214844 61.320312 132.550781 46.140625 C 98.789062 58.988281 65.511719 72.410156 32.71875 86.410156 C 30.484375 185.683594 30.484375 285.238281 32.71875 385.066406 C 33.734375 384.859375 34.296875 384.300781 34.394531 383.390625 C 55.925781 375.191406 77.175781 366.523438 98.15625 357.382812 C 109.34375 352.71875 120.808594 349.082031 132.550781 346.476562 C 170.382812 360.214844 207.574219 375.597656 244.128906 392.617188 C 247.484375 393.738281 250.839844 393.738281 254.195312 392.617188 C 262.984375 387.941406 271.933594 383.746094 281.039062 380.035156 C 288.195312 390.234375 293.789062 401.417969 297.820312 413.589844 C 282.605469 421.191406 266.949219 427.902344 250.839844 433.726562 C 233.59375 427.980469 216.8125 421.269531 200.503906 413.589844 C 197.222656 416.402344 194.984375 415.84375 193.792969 411.914062 C 184.167969 406.542969 174.097656 402.070312 163.589844 398.488281 C 161.441406 396.089844 158.644531 394.96875 155.203125 395.132812 C 148.207031 391.011719 140.65625 387.65625 132.550781 385.066406 C 122.65625 387.929688 113.429688 391.84375 104.867188 396.8125 C 104.304688 396.8125 103.746094 396.8125 103.1875 396.8125 C 75.019531 407.6875 47.054688 418.875 19.296875 430.367188 C 18.734375 430.367188 18.175781 430.367188 17.617188 430.367188 C 12.070312 431.101562 7.035156 429.984375 2.515625 427.011719 C 0.839844 322.992188 0.28125 218.964844 0.839844 114.933594 C 0.558594 96.46875 0.839844 78.011719 1.679688 59.5625 C 11.136719 55.253906 20.363281 50.777344 29.363281 46.140625 C 41.324219 43.28125 52.511719 38.804688 62.917969 32.71875 C 69.347656 32.078125 74.941406 29.839844 79.699219 26.007812 C 95.117188 21.097656 110.21875 15.226562 125 8.390625 C 130.035156 7.269531 135.066406 7.269531 140.101562 8.390625 C 175.144531 23.902344 210.378906 39.285156 245.804688 54.53125 C 247.882812 56.0625 250.121094 56.339844 252.515625 55.367188 C 291.441406 37.09375 330.03125 18.359375 368.289062 -0.839844 Z M 368.289062 -0.839844 "/>
</g>
<mask id="mask2">
  <g filter="url(#alpha)">
<rect x="0" y="0" width="500" height="500" style="fill:rgb(0%,0%,0%);fill-opacity:0.168627;stroke:none;"/>
  </g>
</mask>
<clipPath id="clip3">
  <rect x="0" y="0" width="500" height="500"/>
</clipPath>
<g id="surface11" clip-path="url(#clip3)">
<path style=" stroke:none;fill-rule:evenodd;fill:rgb(19.607843%,45.490196%,53.72549%);fill-opacity:1;" d="M 405.203125 2.515625 C 415.027344 2.734375 423.976562 4.972656 432.046875 9.226562 C 422.515625 8.449219 413.566406 6.214844 405.203125 2.515625 Z M 405.203125 2.515625 "/>
</g>
<mask id="mask3">
  <g filter="url(#alpha)">
<rect x="0" y="0" width="500" height="500" style="fill:rgb(0%,0%,0%);fill-opacity:0.12549;stroke:none;"/>
  </g>
</mask>
<clipPath id="clip4">
  <rect x="0" y="0" width="500" height="500"/>
</clipPath>
<g id="surface14" clip-path="url(#clip4)">
<path style=" stroke:none;fill-rule:evenodd;fill:rgb(14.901961%,38.431373%,45.882353%);fill-opacity:1;" d="M 433.726562 9.226562 C 438.570312 8.371094 442.484375 9.492188 445.46875 12.582031 C 441.019531 12.734375 437.105469 11.617188 433.726562 9.226562 Z M 433.726562 9.226562 "/>
</g>
<mask id="mask4">
  <g filter="url(#alpha)">
<rect x="0" y="0" width="500" height="500" style="fill:rgb(0%,0%,0%);fill-opacity:0.0627451;stroke:none;"/>
  </g>
</mask>
<clipPath id="clip5">
  <rect x="0" y="0" width="500" height="500"/>
</clipPath>
<g id="surface17" clip-path="url(#clip5)">
<path style=" stroke:none;fill-rule:evenodd;fill:rgb(12.54902%,33.72549%,40.784314%);fill-opacity:1;" d="M 445.46875 12.582031 C 451.894531 11.628906 457.488281 12.746094 462.25 15.941406 C 456.246094 15.859375 450.652344 14.738281 445.46875 12.582031 Z M 445.46875 12.582031 "/>
</g>
<mask id="mask5">
  <g filter="url(#alpha)">
<rect x="0" y="0" width="500" height="500" style="fill:rgb(0%,0%,0%);fill-opacity:0.25098;stroke:none;"/>
  </g>
</mask>
<clipPath id="clip6">
  <rect x="0" y="0" width="500" height="500"/>
</clipPath>
<g id="surface20" clip-path="url(#clip6)">
<path style=" stroke:none;fill-rule:evenodd;fill:rgb(52.54902%,68.235294%,74.509804%);fill-opacity:1;" d="M 247.484375 52.851562 C 246.363281 52.851562 245.804688 53.410156 245.804688 54.53125 C 210.378906 39.285156 175.144531 23.902344 140.101562 8.390625 C 135.066406 7.269531 130.035156 7.269531 125 8.390625 C 110.21875 15.226562 95.117188 21.097656 79.699219 26.007812 C 81.097656 23.585938 83.335938 21.90625 86.410156 20.972656 C 97.59375 16.5 108.78125 12.023438 119.964844 7.550781 C 128.914062 5.3125 137.863281 5.3125 146.8125 7.550781 C 178.132812 20.972656 209.453125 34.394531 240.773438 47.820312 C 243.84375 48.753906 246.082031 50.429688 247.484375 52.851562 Z M 247.484375 52.851562 "/>
</g>
<mask id="mask6">
  <g filter="url(#alpha)">
<rect x="0" y="0" width="500" height="500" style="fill:rgb(0%,0%,0%);fill-opacity:0.0941176;stroke:none;"/>
  </g>
</mask>
<clipPath id="clip7">
  <rect x="0" y="0" width="500" height="500"/>
</clipPath>
<g id="surface23" clip-path="url(#clip7)">
<path style=" stroke:none;fill-rule:evenodd;fill:rgb(34.509804%,55.294118%,63.921569%);fill-opacity:1;" d="M 79.699219 26.007812 C 74.941406 29.839844 69.347656 32.078125 62.917969 32.71875 C 67.214844 27.914062 72.808594 25.679688 79.699219 26.007812 Z M 79.699219 26.007812 "/>
</g>
<mask id="mask7">
  <g filter="url(#alpha)">
<rect x="0" y="0" width="500" height="500" style="fill:rgb(0%,0%,0%);fill-opacity:0.12549;stroke:none;"/>
  </g>
</mask>
<clipPath id="clip8">
  <rect x="0" y="0" width="500" height="500"/>
</clipPath>
<g id="surface26" clip-path="url(#clip8)">
<path style=" stroke:none;fill-rule:evenodd;fill:rgb(30.588235%,49.411765%,56.862745%);fill-opacity:1;" d="M 358.222656 -0.839844 C 361.578125 -0.839844 364.933594 -0.839844 368.289062 -0.839844 C 330.03125 18.359375 291.441406 37.09375 252.515625 55.367188 C 250.121094 56.339844 247.882812 56.0625 245.804688 54.53125 C 245.804688 53.410156 246.363281 52.851562 247.484375 52.851562 C 273.121094 41.15625 298.847656 29.410156 324.664062 17.617188 C 336.597656 12.222656 347.785156 6.070312 358.222656 -0.839844 Z M 358.222656 -0.839844 "/>
</g>
<mask id="mask8">
  <g filter="url(#alpha)">
<rect x="0" y="0" width="500" height="500" style="fill:rgb(0%,0%,0%);fill-opacity:0.172549;stroke:none;"/>
  </g>
</mask>
<clipPath id="clip9">
  <rect x="0" y="0" width="500" height="500"/>
</clipPath>
<g id="surface29" clip-path="url(#clip9)">
<path style=" stroke:none;fill-rule:evenodd;fill:rgb(25.490196%,49.803922%,60.784314%);fill-opacity:1;" d="M 62.917969 32.71875 C 52.511719 38.804688 41.324219 43.28125 29.363281 46.140625 C 36.402344 41.324219 44.230469 37.410156 52.851562 34.394531 C 56.035156 32.777344 59.390625 32.214844 62.917969 32.71875 Z M 62.917969 32.71875 "/>
</g>
<mask id="mask9">
  <g filter="url(#alpha)">
<rect x="0" y="0" width="500" height="500" style="fill:rgb(0%,0%,0%);fill-opacity:0.25098;stroke:none;"/>
  </g>
</mask>
<clipPath id="clip10">
  <rect x="0" y="0" width="500" height="500"/>
</clipPath>
<g id="surface32" clip-path="url(#clip10)">
<path style=" stroke:none;fill-rule:evenodd;fill:rgb(14.509804%,17.647059%,19.607843%);fill-opacity:1;" d="M 462.25 15.941406 C 475.359375 16.699219 487.664062 20.054688 499.160156 26.007812 C 499.160156 130.59375 499.160156 235.179688 499.160156 339.765625 C 498.601562 339.765625 498.042969 339.765625 497.484375 339.765625 C 497.761719 236.855469 497.484375 133.945312 496.644531 31.039062 C 492.605469 26.917969 487.851562 23.84375 482.382812 21.8125 C 475.113281 20.992188 468.402344 19.035156 462.25 15.941406 Z M 462.25 15.941406 "/>
</g>
<mask id="mask10">
  <g filter="url(#alpha)">
<rect x="0" y="0" width="500" height="500" style="fill:rgb(0%,0%,0%);fill-opacity:0.25098;stroke:none;"/>
  </g>
</mask>
<clipPath id="clip11">
  <rect x="0" y="0" width="500" height="500"/>
</clipPath>
<g id="surface35" clip-path="url(#clip11)">
<path style=" stroke:none;fill-rule:evenodd;fill:rgb(10.588235%,29.019608%,37.254902%);fill-opacity:1;" d="M 29.363281 46.140625 C 20.363281 50.777344 11.136719 55.253906 1.679688 59.5625 C 0.839844 78.011719 0.558594 96.46875 0.839844 114.933594 C 0.28125 114.933594 -0.28125 114.933594 -0.839844 114.933594 C -0.839844 95.359375 -0.839844 75.78125 -0.839844 56.207031 C 8.898438 51.898438 18.964844 48.542969 29.363281 46.140625 Z M 29.363281 46.140625 "/>
</g>
<mask id="mask11">
  <g filter="url(#alpha)">
<rect x="0" y="0" width="500" height="500" style="fill:rgb(0%,0%,0%);fill-opacity:0.996078;stroke:none;"/>
  </g>
</mask>
<clipPath id="clip12">
  <rect x="0" y="0" width="500" height="500"/>
</clipPath>
<g id="surface38" clip-path="url(#clip12)">
<path style=" stroke:none;fill-rule:evenodd;fill:rgb(92.54902%,12.941176%,14.117647%);fill-opacity:1;" d="M 341.441406 225.671875 C 348.210938 225.960938 354.921875 226.796875 361.578125 228.1875 C 413.808594 251.285156 431.144531 290.15625 413.589844 344.796875 C 408.160156 355.105469 403.125 365.730469 398.488281 376.679688 C 390.261719 392.574219 382.433594 408.796875 375 425.335938 C 363.070312 449.757812 350.765625 473.808594 338.085938 497.484375 C 338.085938 496.363281 337.527344 495.804688 336.410156 495.804688 C 324.867188 467.695312 312.003906 440.289062 297.820312 413.589844 C 293.789062 401.417969 288.195312 390.234375 281.039062 380.035156 C 276.675781 367.945312 271.363281 356.199219 265.101562 344.796875 C 256.148438 323.230469 255.308594 301.417969 262.582031 279.363281 C 270.96875 259.808594 284.390625 244.710938 302.851562 234.058594 C 306.207031 232.382812 309.5625 230.703125 312.917969 229.027344 C 322.199219 226.300781 331.707031 225.183594 341.441406 225.671875 Z M 341.441406 225.671875 "/>
</g>
<mask id="mask12">
  <g filter="url(#alpha)">
<rect x="0" y="0" width="500" height="500" style="fill:rgb(0%,0%,0%);fill-opacity:0.25098;stroke:none;"/>
  </g>
</mask>
<clipPath id="clip13">
  <rect x="0" y="0" width="500" height="500"/>
</clipPath>
<g id="surface41" clip-path="url(#clip13)">
<path style=" stroke:none;fill-rule:evenodd;fill:rgb(12.941176%,19.215686%,23.137255%);fill-opacity:1;" d="M -0.839844 114.933594 C -0.28125 114.933594 0.28125 114.933594 0.839844 114.933594 C 0.28125 218.964844 0.839844 322.992188 2.515625 427.011719 C 7.035156 429.984375 12.070312 431.101562 17.617188 430.367188 C 11.808594 432.015625 5.65625 432.574219 -0.839844 432.046875 C -0.839844 326.34375 -0.839844 220.636719 -0.839844 114.933594 Z M -0.839844 114.933594 "/>
</g>
<mask id="mask13">
  <g filter="url(#alpha)">
<rect x="0" y="0" width="500" height="500" style="fill:rgb(0%,0%,0%);fill-opacity:0.0352941;stroke:none;"/>
  </g>
</mask>
<clipPath id="clip14">
  <rect x="0" y="0" width="500" height="500"/>
</clipPath>
<g id="surface44" clip-path="url(#clip14)">
<path style=" stroke:none;fill-rule:evenodd;fill:rgb(7.45098%,27.058824%,38.431373%);fill-opacity:1;" d="M 398.488281 376.679688 C 398.675781 377.714844 399.234375 378.550781 400.167969 379.195312 C 411.679688 381.746094 422.867188 384.824219 433.726562 388.421875 C 423.480469 387.265625 413.414062 385.03125 403.523438 381.710938 C 401.285156 383.949219 399.046875 386.1875 396.8125 388.421875 C 390.617188 400.816406 384.464844 413.121094 378.355469 425.335938 C 377.238281 425.335938 376.117188 425.335938 375 425.335938 C 382.433594 408.796875 390.261719 392.574219 398.488281 376.679688 Z M 398.488281 376.679688 "/>
</g>
<mask id="mask14">
  <g filter="url(#alpha)">
<rect x="0" y="0" width="500" height="500" style="fill:rgb(0%,0%,0%);fill-opacity:0.0627451;stroke:none;"/>
  </g>
</mask>
<clipPath id="clip15">
  <rect x="0" y="0" width="500" height="500"/>
</clipPath>
<g id="surface47" clip-path="url(#clip15)">
<path style=" stroke:none;fill-rule:evenodd;fill:rgb(2.745098%,28.235294%,39.607843%);fill-opacity:1;" d="M 435.402344 388.421875 C 444.90625 389.195312 453.855469 391.433594 462.25 395.132812 C 458.292969 395.40625 454.378906 395.128906 450.503906 394.296875 C 445.222656 392.691406 440.191406 390.734375 435.402344 388.421875 Z M 435.402344 388.421875 "/>
</g>
<mask id="mask15">
  <g filter="url(#alpha)">
<rect x="0" y="0" width="500" height="500" style="fill:rgb(0%,0%,0%);fill-opacity:0.0156863;stroke:none;"/>
  </g>
</mask>
<clipPath id="clip16">
  <rect x="0" y="0" width="500" height="500"/>
</clipPath>
<g id="surface50" clip-path="url(#clip16)">
<path style=" stroke:none;fill-rule:evenodd;fill:rgb(8.235294%,26.666667%,34.117647%);fill-opacity:1;" d="M 155.203125 395.132812 C 152.429688 392.941406 149.632812 392.941406 146.8125 395.132812 C 141.976562 392.4375 136.941406 390.199219 131.710938 388.421875 C 123.652344 391.945312 115.542969 395.300781 107.382812 398.488281 C 106.097656 398.371094 105.261719 397.8125 104.867188 396.8125 C 113.429688 391.84375 122.65625 387.929688 132.550781 385.066406 C 140.65625 387.65625 148.207031 391.011719 155.203125 395.132812 Z M 155.203125 395.132812 "/>
</g>
<mask id="mask16">
  <g filter="url(#alpha)">
<rect x="0" y="0" width="500" height="500" style="fill:rgb(0%,0%,0%);fill-opacity:0.133333;stroke:none;"/>
  </g>
</mask>
<clipPath id="clip17">
  <rect x="0" y="0" width="500" height="500"/>
</clipPath>
<g id="surface53" clip-path="url(#clip17)">
<path style=" stroke:none;fill-rule:evenodd;fill:rgb(9.803922%,31.372549%,40%);fill-opacity:1;" d="M 155.203125 395.132812 C 158.644531 394.96875 161.441406 396.089844 163.589844 398.488281 C 160.519531 397.5625 157.722656 397.5625 155.203125 398.488281 C 153.585938 397.703125 153.585938 396.582031 155.203125 395.132812 Z M 155.203125 395.132812 "/>
</g>
<mask id="mask17">
  <g filter="url(#alpha)">
<rect x="0" y="0" width="500" height="500" style="fill:rgb(0%,0%,0%);fill-opacity:0.0156863;stroke:none;"/>
  </g>
</mask>
<clipPath id="clip18">
  <rect x="0" y="0" width="500" height="500"/>
</clipPath>
<g id="surface56" clip-path="url(#clip18)">
<path style=" stroke:none;fill-rule:evenodd;fill:rgb(1.568627%,29.411765%,41.176471%);fill-opacity:1;" d="M 497.484375 339.765625 C 498.042969 339.765625 498.601562 339.765625 499.160156 339.765625 C 499.160156 358.222656 499.160156 376.679688 499.160156 395.132812 C 487.753906 398.492188 476.011719 399.332031 463.925781 397.652344 C 462.992188 397.007812 462.433594 396.167969 462.25 395.132812 C 471.164062 396.582031 480.109375 396.859375 489.09375 395.972656 C 491.609375 393.457031 494.128906 390.941406 496.644531 388.421875 C 497.484375 372.214844 497.761719 355.992188 497.484375 339.765625 Z M 497.484375 339.765625 "/>
</g>
<mask id="mask18">
  <g filter="url(#alpha)">
<rect x="0" y="0" width="500" height="500" style="fill:rgb(0%,0%,0%);fill-opacity:0.00784314;stroke:none;"/>
  </g>
</mask>
<clipPath id="clip19">
  <rect x="0" y="0" width="500" height="500"/>
</clipPath>
<g id="surface59" clip-path="url(#clip19)">
<path style=" stroke:none;fill-rule:evenodd;fill:rgb(5.882353%,25.098039%,33.72549%);fill-opacity:1;" d="M 163.589844 400.167969 C 162.925781 401.886719 161.808594 402.167969 160.234375 401.007812 C 161.230469 400.226562 162.351562 399.949219 163.589844 400.167969 Z M 163.589844 400.167969 "/>
</g>
<mask id="mask19">
  <g filter="url(#alpha)">
<rect x="0" y="0" width="500" height="500" style="fill:rgb(0%,0%,0%);fill-opacity:0.0235294;stroke:none;"/>
  </g>
</mask>
<clipPath id="clip20">
  <rect x="0" y="0" width="500" height="500"/>
</clipPath>
<g id="surface62" clip-path="url(#clip20)">
<path style=" stroke:none;fill-rule:evenodd;fill:rgb(5.098039%,29.411765%,40%);fill-opacity:1;" d="M 163.589844 400.167969 C 163.589844 399.609375 163.589844 399.046875 163.589844 398.488281 C 174.097656 402.070312 184.167969 406.542969 193.792969 411.914062 C 185.792969 411.691406 178.800781 408.894531 172.820312 403.523438 C 171.058594 405.230469 169.101562 405.511719 166.945312 404.363281 C 168.476562 401.636719 167.359375 400.238281 163.589844 400.167969 Z M 163.589844 400.167969 "/>
</g>
<mask id="mask20">
  <g filter="url(#alpha)">
<rect x="0" y="0" width="500" height="500" style="fill:rgb(0%,0%,0%);fill-opacity:0.054902;stroke:none;"/>
  </g>
</mask>
<clipPath id="clip21">
  <rect x="0" y="0" width="500" height="500"/>
</clipPath>
<g id="surface65" clip-path="url(#clip21)">
<path style=" stroke:none;fill-rule:evenodd;fill:rgb(1.960784%,24.705882%,33.72549%);fill-opacity:1;" d="M 103.1875 396.8125 C 103.1875 398.488281 103.1875 400.167969 103.1875 401.84375 C 78 409.683594 53.390625 419.191406 29.363281 430.367188 C 25.777344 432.539062 22.421875 432.539062 19.296875 430.367188 C 47.054688 418.875 75.019531 407.6875 103.1875 396.8125 Z M 103.1875 396.8125 "/>
</g>
<mask id="mask21">
  <g filter="url(#alpha)">
<rect x="0" y="0" width="500" height="500" style="fill:rgb(0%,0%,0%);fill-opacity:0.0156863;stroke:none;"/>
  </g>
</mask>
<clipPath id="clip22">
  <rect x="0" y="0" width="500" height="500"/>
</clipPath>
<g id="surface68" clip-path="url(#clip22)">
<path style=" stroke:none;fill-rule:evenodd;fill:rgb(12.941176%,41.568627%,59.215686%);fill-opacity:1;" d="M 375 425.335938 C 376.117188 425.335938 377.238281 425.335938 378.355469 425.335938 C 367.179688 449.929688 355.992188 474.535156 344.796875 499.160156 C 342.5625 499.160156 340.324219 499.160156 338.085938 499.160156 C 338.085938 498.601562 338.085938 498.042969 338.085938 497.484375 C 350.765625 473.808594 363.070312 449.757812 375 425.335938 Z M 375 425.335938 "/>
</g>
<mask id="mask22">
  <g filter="url(#alpha)">
<rect x="0" y="0" width="500" height="500" style="fill:rgb(0%,0%,0%);fill-opacity:0.0352941;stroke:none;"/>
  </g>
</mask>
<clipPath id="clip23">
  <rect x="0" y="0" width="500" height="500"/>
</clipPath>
<g id="surface71" clip-path="url(#clip23)">
<path style=" stroke:none;fill-rule:evenodd;fill:rgb(11.764706%,34.901961%,48.235294%);fill-opacity:1;" d="M 200.503906 413.589844 C 216.8125 421.269531 233.59375 427.980469 250.839844 433.726562 C 266.949219 427.902344 282.605469 421.191406 297.820312 413.589844 C 312.003906 440.289062 324.867188 467.695312 336.410156 495.804688 C 334.730469 495.804688 333.054688 495.804688 331.375 495.804688 C 321.113281 469.6875 309.929688 443.960938 297.820312 418.625 C 287.589844 421.917969 277.800781 426.394531 268.457031 432.046875 C 266.085938 429.660156 264.128906 429.941406 262.582031 432.886719 C 263.144531 433.445312 263.703125 434.003906 264.261719 434.5625 C 255.261719 435.953125 246.3125 435.675781 237.417969 433.726562 C 225.4375 427.6875 213.132812 422.652344 200.503906 418.625 C 200.503906 416.945312 200.503906 415.269531 200.503906 413.589844 Z M 200.503906 413.589844 "/>
</g>
</defs>
<g id="surface1">
<use xlink:href="#surface5" mask="url(#mask0)"/>
<use xlink:href="#surface8" mask="url(#mask1)"/>
<use xlink:href="#surface11" mask="url(#mask2)"/>
<use xlink:href="#surface14" mask="url(#mask3)"/>
<use xlink:href="#surface17" mask="url(#mask4)"/>
<use xlink:href="#surface20" mask="url(#mask5)"/>
<use xlink:href="#surface23" mask="url(#mask6)"/>
<use xlink:href="#surface26" mask="url(#mask7)"/>
<path style=" stroke:none;fill-rule:evenodd;fill:rgb(99.607843%,99.607843%,99.607843%);fill-opacity:1;" d="M 462.25 54.53125 C 463.359375 155.21875 462.242188 255.328125 458.894531 354.867188 C 443.78125 351.503906 428.679688 348.148438 413.589844 344.796875 C 431.144531 290.15625 413.808594 251.285156 361.578125 228.1875 C 354.921875 226.796875 348.210938 225.960938 341.441406 225.671875 C 328.785156 200.992188 309.492188 183.65625 283.558594 173.65625 C 277.5 149.769531 262.117188 139.984375 237.417969 144.296875 C 223.917969 150.007812 215.527344 160.078125 212.25 174.496094 C 171.574219 192.371094 149.203125 223.414062 145.132812 267.617188 C 140.070312 267.339844 135.035156 267.621094 130.035156 268.457031 C 126.507812 271.363281 125.949219 274.71875 128.355469 278.523438 C 173.09375 279.363281 217.835938 279.644531 262.582031 279.363281 C 255.308594 301.417969 256.148438 323.230469 265.101562 344.796875 C 271.363281 356.199219 276.675781 367.945312 281.039062 380.035156 C 271.933594 383.746094 262.984375 387.941406 254.195312 392.617188 C 250.839844 393.738281 247.484375 393.738281 244.128906 392.617188 C 207.574219 375.597656 170.382812 360.214844 132.550781 346.476562 C 120.808594 349.082031 109.34375 352.71875 98.15625 357.382812 C 77.175781 366.523438 55.925781 375.191406 34.394531 383.390625 C 32.71875 284.679688 32.160156 185.6875 32.71875 86.410156 C 65.511719 72.410156 98.789062 58.988281 132.550781 46.140625 C 168.214844 61.320312 203.726562 76.699219 239.09375 92.28125 C 246.363281 95.636719 253.636719 95.636719 260.90625 92.28125 C 300.714844 73.230469 340.707031 54.492188 380.871094 36.074219 C 407.917969 42.761719 435.039062 48.914062 462.25 54.53125 Z M 462.25 54.53125 "/>
<use xlink:href="#surface29" mask="url(#mask8)"/>
<use xlink:href="#surface32" mask="url(#mask9)"/>
<path style=" stroke:none;fill-rule:evenodd;fill:rgb(67.843137%,86.666667%,94.117647%);fill-opacity:1;" d="M 32.71875 86.410156 C 32.160156 185.6875 32.71875 284.679688 34.394531 383.390625 C 34.296875 384.300781 33.734375 384.859375 32.71875 385.066406 C 30.484375 285.238281 30.484375 185.683594 32.71875 86.410156 Z M 32.71875 86.410156 "/>
<use xlink:href="#surface35" mask="url(#mask10)"/>
<path style=" stroke:none;fill-rule:evenodd;fill:rgb(30.588235%,82.745098%,99.607843%);fill-opacity:1;" d="M 341.441406 225.671875 C 331.707031 225.183594 322.199219 226.300781 312.917969 229.027344 C 304.492188 209.683594 290.507812 196.539062 270.972656 189.597656 C 277.949219 195.398438 284.382812 201.832031 290.269531 208.894531 C 295.265625 216.90625 299.460938 225.296875 302.851562 234.058594 C 284.390625 244.710938 270.96875 259.808594 262.582031 279.363281 C 217.835938 279.644531 173.09375 279.363281 128.355469 278.523438 C 125.949219 274.71875 126.507812 271.363281 130.035156 268.457031 C 135.035156 267.621094 140.070312 267.339844 145.132812 267.617188 C 149.203125 223.414062 171.574219 192.371094 212.25 174.496094 C 215.527344 160.078125 223.917969 150.007812 237.417969 144.296875 C 262.117188 139.984375 277.5 149.769531 283.558594 173.65625 C 309.492188 183.65625 328.785156 200.992188 341.441406 225.671875 Z M 341.441406 225.671875 "/>
<path style=" stroke:none;fill-rule:evenodd;fill:rgb(96.470588%,98.823529%,99.607843%);fill-opacity:1;" d="M 237.417969 153.523438 C 253.566406 149.863281 265.3125 155.175781 272.652344 169.464844 C 258.128906 168.179688 243.585938 168.460938 229.027344 170.300781 C 227.90625 169.742188 226.789062 169.183594 225.671875 168.625 C 228.984375 163.078125 232.902344 158.046875 237.417969 153.523438 Z M 237.417969 153.523438 "/>
<path style=" stroke:none;fill-rule:evenodd;fill:rgb(48.235294%,81.568627%,93.72549%);fill-opacity:1;" d="M 462.25 54.53125 C 463.925781 154.917969 464.484375 255.589844 463.925781 356.542969 C 461.761719 356.941406 460.082031 356.382812 458.894531 354.867188 C 462.242188 255.328125 463.359375 155.21875 462.25 54.53125 Z M 462.25 54.53125 "/>
<path style=" stroke:none;fill-rule:evenodd;fill:rgb(95.686275%,98.431373%,99.215686%);fill-opacity:1;" d="M 312.917969 229.027344 C 309.5625 230.703125 306.207031 232.382812 302.851562 234.058594 C 299.460938 225.296875 295.265625 216.90625 290.269531 208.894531 C 284.382812 201.832031 277.949219 195.398438 270.972656 189.597656 C 290.507812 196.539062 304.492188 209.683594 312.917969 229.027344 Z M 312.917969 229.027344 "/>
<use xlink:href="#surface38" mask="url(#mask11)"/>
<path style=" stroke:none;fill-rule:evenodd;fill:rgb(33.72549%,82.352941%,98.039216%);fill-opacity:1;" d="M 366.609375 279.363281 C 348.414062 279.914062 330.515625 279.351562 312.917969 277.683594 C 324.875 263.546875 339.417969 260.472656 356.542969 268.457031 C 361.425781 270.816406 364.78125 274.449219 366.609375 279.363281 Z M 366.609375 279.363281 "/>
<path style=" stroke:none;fill-rule:evenodd;fill:rgb(99.607843%,98.431373%,98.431373%);fill-opacity:1;" d="M 312.917969 277.683594 C 330.515625 279.351562 348.414062 279.914062 366.609375 279.363281 C 377.300781 297.871094 374.503906 314.371094 358.222656 328.859375 C 328.355469 340.421875 310.460938 330.355469 304.53125 298.65625 C 305.238281 290.625 308.035156 283.632812 312.917969 277.683594 Z M 312.917969 277.683594 "/>
<use xlink:href="#surface41" mask="url(#mask12)"/>
<use xlink:href="#surface44" mask="url(#mask13)"/>
<use xlink:href="#surface47" mask="url(#mask14)"/>
<use xlink:href="#surface50" mask="url(#mask15)"/>
<use xlink:href="#surface53" mask="url(#mask16)"/>
<use xlink:href="#surface56" mask="url(#mask17)"/>
<use xlink:href="#surface59" mask="url(#mask18)"/>
<use xlink:href="#surface62" mask="url(#mask19)"/>
<use xlink:href="#surface65" mask="url(#mask20)"/>
<use xlink:href="#surface68" mask="url(#mask21)"/>
<use xlink:href="#surface71" mask="url(#mask22)"/>
</g>
</svg>
